<svg width="64" height="64" viewBox="0 0 64 64" xmlns="http://www.w3.org/2000/svg">
  <!-- 像素風格弓箭手頭像 -->
  <!-- 頭髮/帽子 -->
  <rect x="18" y="8" width="28" height="8" fill="#8B4513"/>
  <rect x="20" y="12" width="24" height="4" fill="#A0522D"/>
  
  <!-- 臉部 -->
  <rect x="20" y="16" width="24" height="16" fill="#FDBCB4"/>
  
  <!-- 眼睛 -->
  <rect x="24" y="20" width="4" height="4" fill="#228B22"/>
  <rect x="36" y="20" width="4" height="4" fill="#228B22"/>
  
  <!-- 鼻子 -->
  <rect x="30" y="24" width="4" height="4" fill="#F4A085"/>
  
  <!-- 嘴巴 -->
  <rect x="28" y="28" width="8" height="2" fill="#8B0000"/>
  
  <!-- 皮甲 -->
  <rect x="16" y="32" width="32" height="24" fill="#8B4513"/>
  <rect x="20" y="36" width="24" height="4" fill="#A0522D"/>
  <rect x="24" y="40" width="16" height="8" fill="#D2691E"/>
  
  <!-- 弓 -->
  <rect x="8" y="12" width="4" height="28" fill="#654321"/>
  <rect x="4" y="16" width="4" height="4" fill="#654321"/>
  <rect x="4" y="32" width="4" height="4" fill="#654321"/>
  
  <!-- 弓弦 -->
  <rect x="12" y="16" width="2" height="20" fill="#FFFFFF"/>
  
  <!-- 箭袋 -->
  <rect x="48" y="20" width="8" height="20" fill="#8B4513"/>
  <rect x="50" y="16" width="2" height="8" fill="#FFD700"/>
  <rect x="52" y="16" width="2" height="8" fill="#FFD700"/>
  <rect x="54" y="16" width="2" height="8" fill="#FFD700"/>
</svg>