<svg width="64" height="64" viewBox="0 0 64 64" xmlns="http://www.w3.org/2000/svg">
  <!-- 像素風格探險家頭像 -->
  <!-- 探險帽 -->
  <rect x="16" y="8" width="32" height="8" fill="#D2691E"/>
  <rect x="20" y="12" width="24" height="4" fill="#A0522D"/>
  <rect x="12" y="12" width="8" height="4" fill="#D2691E"/>
  <rect x="44" y="12" width="8" height="4" fill="#D2691E"/>
  
  <!-- 臉部 -->
  <rect x="20" y="16" width="24" height="16" fill="#FDBCB4"/>
  
  <!-- 眼睛 -->
  <rect x="24" y="20" width="4" height="4" fill="#8B4513"/>
  <rect x="36" y="20" width="4" height="4" fill="#8B4513"/>
  
  <!-- 鼻子 -->
  <rect x="30" y="24" width="4" height="4" fill="#F4A085"/>
  
  <!-- 嘴巴 -->
  <rect x="28" y="28" width="8" height="2" fill="#8B0000"/>
  
  <!-- 冒險服 -->
  <rect x="16" y="32" width="32" height="24" fill="#DAA520"/>
  <rect x="20" y="36" width="24" height="4" fill="#B8860B"/>
  <rect x="24" y="40" width="16" height="8" fill="#CD853F"/>
  
  <!-- 背包 -->
  <rect x="48" y="24" width="12" height="20" fill="#8B4513"/>
  <rect x="50" y="28" width="8" height="4" fill="#A0522D"/>
  <rect x="52" y="32" width="4" height="8" fill="#654321"/>
  
  <!-- 羅盤 -->
  <rect x="8" y="32" width="8" height="8" fill="#FFD700"/>
  <rect x="10" y="34" width="4" height="4" fill="#000000"/>
  <rect x="11" y="35" width="2" height="2" fill="#FF0000"/>
  
  <!-- 地圖 -->
  <rect x="8" y="44" width="8" height="8" fill="#F5F5DC"/>
  <rect x="10" y="46" width="4" height="2" fill="#8B4513"/>
</svg>