<svg width="64" height="64" viewBox="0 0 64 64" xmlns="http://www.w3.org/2000/svg">
  <!-- 像素風格學者頭像 -->
  <!-- 學者帽 -->
  <rect x="16" y="4" width="32" height="12" fill="#000080"/>
  <rect x="20" y="12" width="24" height="4" fill="#4169E1"/>
  <rect x="44" y="8" width="8" height="4" fill="#FFD700"/>
  
  <!-- 臉部 -->
  <rect x="20" y="16" width="24" height="16" fill="#FDBCB4"/>
  
  <!-- 眼鏡 -->
  <rect x="22" y="18" width="8" height="8" fill="#FFFFFF"/>
  <rect x="34" y="18" width="8" height="8" fill="#FFFFFF"/>
  <rect x="24" y="20" width="4" height="4" fill="#000000"/>
  <rect x="36" y="20" width="4" height="4" fill="#000000"/>
  <rect x="30" y="22" width="4" height="2" fill="#C0C0C0"/>
  
  <!-- 鼻子 -->
  <rect x="30" y="26" width="4" height="2" fill="#F4A085"/>
  
  <!-- 嘴巴 -->
  <rect x="28" y="28" width="8" height="2" fill="#8B0000"/>
  
  <!-- 學者袍 -->
  <rect x="16" y="32" width="32" height="24" fill="#000080"/>
  <rect x="20" y="36" width="24" height="4" fill="#4169E1"/>
  <rect x="24" y="40" width="16" height="8" fill="#6495ED"/>
  
  <!-- 書本 -->
  <rect x="8" y="24" width="8" height="12" fill="#8B4513"/>
  <rect x="9" y="26" width="6" height="2" fill="#FFFFFF"/>
  <rect x="9" y="28" width="6" height="2" fill="#FFFFFF"/>
  <rect x="9" y="30" width="6" height="2" fill="#FFFFFF"/>
  
  <!-- 羽毛筆 -->
  <rect x="48" y="20" width="4" height="16" fill="#8B4513"/>
  <rect x="46" y="16" width="8" height="8" fill="#FFFFFF"/>
  <rect x="50" y="18" width="2" height="4" fill="#FFD700"/>
  
  <!-- 卷軸 -->
  <rect x="52" y="32" width="8" height="12" fill="#F5F5DC"/>
  <rect x="54" y="34" width="4" height="2" fill="#000000"/>
  <rect x="54" y="36" width="4" height="2" fill="#000000"/>
</svg>